<svg width="100" height="100" viewBox="0 0 100 100" fill="none" xmlns="http://www.w3.org/2000/svg">
  <circle cx="50" cy="50" r="48" fill="#ffffff" stroke="#E5E7EB" stroke-width="1"/>
  <path d="M 50 8 A 42 42 0 0 1 88 65" stroke="#FF9933" stroke-width="4" stroke-linecap="round" fill="none"/>
  <path d="M 12 60 A 42 42 0 0 0 55 92" stroke="#138808" stroke-width="4" stroke-linecap="round" fill="none"/>
  <line x1="50" y1="26" x2="50" y2="38" stroke="#1E3A8A" stroke-width="1.5"/>
  <path d="M 50 27 L 58 30 L 50 33 Z" fill="#FF9933"/>
  <path d="M 42 42 Q 50 32, 58 42 L 58 46 L 42 46 Z" fill="#1E3A8A"/>
  <circle cx="50" cy="38" r="1.5" fill="#1E3A8A"/>
  <rect x="38" y="46" width="24" height="4" fill="#1E3A8A"/>
  <rect x="36" y="50" width="28" height="22" fill="#1E3A8A"/>
  <rect x="40" y="52" width="2" height="18" fill="#ffffff"/>
  <rect x="46" y="52" width="2" height="18" fill="#ffffff"/>
  <rect x="52" y="52" width="2" height="18" fill="#ffffff"/>
  <rect x="58" y="52" width="2" height="18" fill="#ffffff"/>
  <rect x="34" y="72" width="32" height="3" fill="#1E3A8A"/>
  <rect x="36" y="75" width="28" height="2" fill="#1E3A8A" opacity="0.7"/>
  <rect x="38" y="77" width="24" height="2" fill="#1E3A8A" opacity="0.5"/>
</svg>